<svg width="141" height="47" viewBox="0 0 141 47" fill="none" xmlns="http://www.w3.org/2000/svg">
<path d="M1.08 16V0.712H4.512V16H1.08ZM8.9318 16V2.792L8.6718 0.712H12.4158L21.2558 9.968L22.2698 11.372H22.5558V0.712H25.9878V16H22.6858L13.6378 6.588L12.6238 5.366H12.3638V16H8.9318ZM33.0643 16C31.8856 16 31.0189 15.948 30.4643 15.844C29.9096 15.74 29.6323 15.6187 29.6323 15.48L30.6723 13.218C31.0709 13.2873 32.0589 13.3567 33.6363 13.426C35.2309 13.478 37.4149 13.504 40.1883 13.504H40.6823C41.4276 13.504 41.9563 13.374 42.2683 13.114C42.5803 12.8367 42.7363 12.3773 42.7363 11.736V11.216C42.7363 10.6093 42.6063 10.176 42.3463 9.916C42.1036 9.656 41.5489 9.526 40.6823 9.526H34.6503C32.8996 9.526 31.6256 9.20533 30.8283 8.564C30.0309 7.90533 29.6323 6.83933 29.6323 5.366V4.95C29.6323 4.18733 29.7709 3.48533 30.0483 2.844C30.3429 2.20267 30.8369 1.69133 31.5303 1.31C32.2236 0.911333 33.1769 0.712 34.3903 0.712H41.4623C42.6409 0.712 43.5943 0.772666 44.3223 0.893999C45.0503 1.01533 45.4143 1.14533 45.4143 1.284L44.8943 3.468C44.4436 3.416 43.4209 3.364 41.8263 3.312C40.2316 3.24267 38.0909 3.208 35.4043 3.208L35.1183 3.182C34.3209 3.182 33.7836 3.34667 33.5063 3.676C33.2289 3.988 33.0816 4.38667 33.0643 4.872V5.314C33.0643 5.886 33.2203 6.31933 33.5323 6.614C33.8616 6.89133 34.3989 7.03 35.1443 7.03H40.9163C42.0256 7.03 42.9703 7.14267 43.7503 7.368C44.5303 7.59333 45.1283 8.00933 45.5443 8.616C45.9603 9.20533 46.1683 10.0807 46.1683 11.242V11.658C46.1683 12.958 45.8303 14.0067 45.1543 14.804C44.4956 15.6013 43.3429 16 41.6963 16H33.0643ZM54.3026 16C53.0893 16 52.1359 15.8267 51.4426 15.48C50.7493 15.1333 50.2553 14.6133 49.9606 13.92C49.6833 13.2267 49.5446 12.3687 49.5446 11.346V5.34C49.5446 4.33467 49.6833 3.494 49.9606 2.818C50.2379 2.12467 50.7233 1.60467 51.4166 1.258C52.1099 0.894 53.0719 0.712 54.3026 0.712H61.8946C63.1079 0.712 64.0526 0.894 64.7286 1.258C65.4219 1.60467 65.9073 2.12467 66.1846 2.818C66.4793 3.494 66.6266 4.33467 66.6266 5.34V11.346C66.6266 12.8713 66.2886 14.0327 65.6126 14.83C64.9366 15.61 63.6973 16 61.8946 16H54.3026ZM55.0566 13.504H61.1666C61.8079 13.504 62.3019 13.3393 62.6486 13.01C63.0126 12.6807 63.1946 12.23 63.1946 11.658V5.028C63.1946 4.52533 63.0126 4.10067 62.6486 3.754C62.2846 3.39 61.7906 3.208 61.1666 3.208H55.0566C54.4326 3.208 53.9299 3.37267 53.5486 3.702C53.1673 4.03133 52.9766 4.47333 52.9766 5.028V11.658C52.9766 12.2473 53.1586 12.7067 53.5226 13.036C53.9039 13.348 54.4153 13.504 55.0566 13.504ZM70.7834 16V2.792L70.5234 0.712H74.4754L80.3514 11.112L86.4354 0.712H89.9454V16H86.5134V6.302H86.2274L85.2134 8.564L81.9374 14.44H78.7914L75.5154 8.564L74.4754 6.302H74.2154V16H70.7834ZM94.1113 16V0.712H97.5433V16H94.1113ZM101.963 16V2.792L101.703 0.712H105.447L114.287 9.968L115.301 11.372H115.587V0.712H119.019V16H115.717L106.669 6.588L105.655 5.366H105.395V16H101.963ZM127.682 16C126.451 16 125.489 15.8267 124.796 15.48C124.102 15.1333 123.617 14.6133 123.34 13.92C123.062 13.2267 122.924 12.3687 122.924 11.346V5.548C122.924 3.884 123.296 2.662 124.042 1.882C124.787 1.08467 126 0.685999 127.682 0.685999H135.508C136.704 0.685999 137.614 0.755332 138.238 0.893999C138.879 1.01533 139.2 1.14533 139.2 1.284L138.68 3.442C138.385 3.39 137.51 3.338 136.054 3.286C134.615 3.21667 132.518 3.182 129.762 3.182H128.436C127.049 3.182 126.356 3.79733 126.356 5.028V11.658C126.356 12.2473 126.503 12.7067 126.798 13.036C127.11 13.348 127.656 13.504 128.436 13.504H129.502C131.166 13.504 132.57 13.4953 133.714 13.478C134.858 13.4433 135.802 13.4173 136.548 13.4V9.864L134.988 9.89L131.582 10.15V7.602H139.954V14.908L140.214 15.454C140.214 15.5927 139.85 15.7227 139.122 15.844C138.394 15.948 137.163 16 135.43 16H127.682ZM5.578 47C4.34733 47 3.38533 46.8267 2.692 46.48C1.99867 46.1333 1.51333 45.6133 1.236 44.92C0.958667 44.2267 0.82 43.3687 0.82 42.346V36.548C0.82 34.884 1.19267 33.662 1.938 32.882C2.68333 32.0847 3.89667 31.686 5.578 31.686H13.404C14.6 31.686 15.51 31.7553 16.134 31.894C16.7753 32.0153 17.096 32.1453 17.096 32.284L16.576 34.442C16.2813 34.39 15.406 34.338 13.95 34.286C12.5113 34.2167 10.414 34.182 7.658 34.182H6.332C4.94533 34.182 4.252 34.7973 4.252 36.028V42.658C4.252 43.2473 4.39933 43.7067 4.694 44.036C5.006 44.348 5.552 44.504 6.332 44.504H7.398C9.062 44.504 10.466 44.4953 11.61 44.478C12.754 44.4433 13.6987 44.4173 14.444 44.4V40.864L12.884 40.89L9.478 41.15V38.602H17.85V45.908L18.11 46.454C18.11 46.5927 17.746 46.7227 17.018 46.844C16.29 46.948 15.0593 47 13.326 47H5.578ZM19.668 47L27.286 31.712H32.408L40 47H35.996L34.462 43.698H25.154L23.464 47H19.668ZM26.09 41.15H33.5L29.938 34.052H29.678L26.09 41.15ZM42.3459 47V33.792L42.0859 31.712H46.0379L51.9139 42.112L57.9979 31.712H61.5079V47H58.0759V37.302H57.7899L56.7759 39.564L53.4999 45.44H50.3539L47.0779 39.564L46.0379 37.302H45.7779V47H42.3459ZM65.6738 47V31.712H81.8458V34.208H69.1058V37.796H78.8298V40.37H69.1058V44.504H81.9498L82.9898 46.714C82.9898 46.7833 82.7558 46.8527 82.2878 46.922C81.8198 46.974 81.0138 47 79.8698 47H65.6738ZM88.492 47C87.3133 47 86.4467 46.948 85.892 46.844C85.3373 46.74 85.06 46.6187 85.06 46.48L86.1 44.218C86.4987 44.2873 87.4867 44.3567 89.064 44.426C90.6587 44.478 92.8427 44.504 95.616 44.504H96.11C96.8553 44.504 97.384 44.374 97.696 44.114C98.008 43.8367 98.164 43.3773 98.164 42.736V42.216C98.164 41.6093 98.034 41.176 97.774 40.916C97.5313 40.656 96.9767 40.526 96.11 40.526H90.078C88.3273 40.526 87.0533 40.2053 86.256 39.564C85.4587 38.9053 85.06 37.8393 85.06 36.366V35.95C85.06 35.1873 85.1987 34.4853 85.476 33.844C85.7707 33.2027 86.2647 32.6913 86.958 32.31C87.6513 31.9113 88.6047 31.712 89.818 31.712H96.89C98.0687 31.712 99.022 31.7727 99.75 31.894C100.478 32.0153 100.842 32.1453 100.842 32.284L100.322 34.468C99.8713 34.416 98.8487 34.364 97.254 34.312C95.6593 34.2427 93.5187 34.208 90.832 34.208L90.546 34.182C89.7487 34.182 89.2113 34.3467 88.934 34.676C88.6567 34.988 88.5093 35.3867 88.492 35.872V36.314C88.492 36.886 88.648 37.3193 88.96 37.614C89.2893 37.8913 89.8267 38.03 90.572 38.03H96.344C97.4533 38.03 98.398 38.1427 99.178 38.368C99.958 38.5933 100.556 39.0093 100.972 39.616C101.388 40.2053 101.596 41.0807 101.596 42.242V42.658C101.596 43.958 101.258 45.0067 100.582 45.804C99.9233 46.6013 98.7707 47 97.124 47H88.492Z" fill="white"/>
</svg>
