<svg width="256" height="256" viewBox="0 0 256 256" fill="none" xmlns="http://www.w3.org/2000/svg">
<g clip-path="url(#clip0_213_2)">
<g filter="url(#filter0_d_213_2)">
<rect width="256" height="256" rx="43" fill="url(#paint0_linear_213_2)"/>
</g>
<g filter="url(#filter1_d_213_2)">
<path d="M64.376 75.4H94.328V165H64.376V75.4ZM153.126 166.92C146.129 166.92 139.558 165.811 133.414 163.592C127.355 161.373 122.022 158.216 117.414 154.12C112.891 150.024 109.307 145.117 106.662 139.4C104.102 133.683 102.822 127.368 102.822 120.456V120.2C102.822 113.544 104.059 107.357 106.534 101.64C109.009 95.9227 112.465 90.9733 116.902 86.792C121.339 82.6107 126.545 79.368 132.518 77.064C138.577 74.6747 145.147 73.48 152.23 73.48C159.995 73.48 166.95 74.6747 173.094 77.064C179.323 79.4533 184.87 82.7813 189.734 87.048L172.966 107.272C169.979 104.797 166.865 102.877 163.622 101.512C160.379 100.147 156.881 99.464 153.126 99.464C150.225 99.464 147.537 100.019 145.062 101.128C142.587 102.152 140.454 103.603 138.662 105.48C136.87 107.357 135.462 109.576 134.438 112.136C133.499 114.696 133.03 117.512 133.03 120.584V120.84C133.03 123.997 133.542 126.899 134.566 129.544C135.675 132.189 137.169 134.451 139.046 136.328C140.923 138.205 143.142 139.656 145.702 140.68C148.347 141.704 151.249 142.216 154.406 142.216C156.966 142.216 159.014 142.045 160.55 141.704C162.086 141.363 163.451 140.851 164.646 140.168V131.208H149.286V112.008H192.678V153.48C187.814 157.491 182.054 160.733 175.398 163.208C168.742 165.683 161.318 166.92 153.126 166.92Z" fill="white"/>
</g>
<g filter="url(#filter2_d_213_2)">
<path d="M64.376 75.4H94.328V165H64.376V75.4ZM153.126 166.92C146.129 166.92 139.558 165.811 133.414 163.592C127.355 161.373 122.022 158.216 117.414 154.12C112.891 150.024 109.307 145.117 106.662 139.4C104.102 133.683 102.822 127.368 102.822 120.456V120.2C102.822 113.544 104.059 107.357 106.534 101.64C109.009 95.9227 112.465 90.9733 116.902 86.792C121.339 82.6107 126.545 79.368 132.518 77.064C138.577 74.6747 145.147 73.48 152.23 73.48C159.995 73.48 166.95 74.6747 173.094 77.064C179.323 79.4533 184.87 82.7813 189.734 87.048L172.966 107.272C169.979 104.797 166.865 102.877 163.622 101.512C160.379 100.147 156.881 99.464 153.126 99.464C150.225 99.464 147.537 100.019 145.062 101.128C142.587 102.152 140.454 103.603 138.662 105.48C136.87 107.357 135.462 109.576 134.438 112.136C133.499 114.696 133.03 117.512 133.03 120.584V120.84C133.03 123.997 133.542 126.899 134.566 129.544C135.675 132.189 137.169 134.451 139.046 136.328C140.923 138.205 143.142 139.656 145.702 140.68C148.347 141.704 151.249 142.216 154.406 142.216C156.966 142.216 159.014 142.045 160.55 141.704C162.086 141.363 163.451 140.851 164.646 140.168V131.208H149.286V112.008H192.678V153.48C187.814 157.491 182.054 160.733 175.398 163.208C168.742 165.683 161.318 166.92 153.126 166.92Z" fill="white"/>
</g>
</g>
<defs>
<filter id="filter0_d_213_2" x="-4" y="0" width="264" height="264" filterUnits="userSpaceOnUse" color-interpolation-filters="sRGB">
<feFlood flood-opacity="0" result="BackgroundImageFix"/>
<feColorMatrix in="SourceAlpha" type="matrix" values="0 0 0 0 0 0 0 0 0 0 0 0 0 0 0 0 0 0 127 0" result="hardAlpha"/>
<feOffset dy="4"/>
<feGaussianBlur stdDeviation="2"/>
<feComposite in2="hardAlpha" operator="out"/>
<feColorMatrix type="matrix" values="0 0 0 0 0 0 0 0 0 0 0 0 0 0 0 0 0 0 0.25 0"/>
<feBlend mode="normal" in2="BackgroundImageFix" result="effect1_dropShadow_213_2"/>
<feBlend mode="normal" in="SourceGraphic" in2="effect1_dropShadow_213_2" result="shape"/>
</filter>
<filter id="filter1_d_213_2" x="45.876" y="48.98" width="179.302" height="144.44" filterUnits="userSpaceOnUse" color-interpolation-filters="sRGB">
<feFlood flood-opacity="0" result="BackgroundImageFix"/>
<feColorMatrix in="SourceAlpha" type="matrix" values="0 0 0 0 0 0 0 0 0 0 0 0 0 0 0 0 0 0 127 0" result="hardAlpha"/>
<feOffset dx="7" dy="1"/>
<feGaussianBlur stdDeviation="12.75"/>
<feComposite in2="hardAlpha" operator="out"/>
<feColorMatrix type="matrix" values="0 0 0 0 0.145098 0 0 0 0 0.411765 0 0 0 0 0.541176 0 0 0 1 0"/>
<feBlend mode="normal" in2="BackgroundImageFix" result="effect1_dropShadow_213_2"/>
<feBlend mode="normal" in="SourceGraphic" in2="effect1_dropShadow_213_2" result="shape"/>
</filter>
<filter id="filter2_d_213_2" x="60.076" y="63.18" width="150.902" height="116.04" filterUnits="userSpaceOnUse" color-interpolation-filters="sRGB">
<feFlood flood-opacity="0" result="BackgroundImageFix"/>
<feColorMatrix in="SourceAlpha" type="matrix" values="0 0 0 0 0 0 0 0 0 0 0 0 0 0 0 0 0 0 127 0" result="hardAlpha"/>
<feOffset dx="7" dy="1"/>
<feGaussianBlur stdDeviation="5.65"/>
<feComposite in2="hardAlpha" operator="out"/>
<feColorMatrix type="matrix" values="0 0 0 0 0.146701 0 0 0 0 0.410012 0 0 0 0 0.541667 0 0 0 0.25 0"/>
<feBlend mode="normal" in2="BackgroundImageFix" result="effect1_dropShadow_213_2"/>
<feBlend mode="normal" in="SourceGraphic" in2="effect1_dropShadow_213_2" result="shape"/>
</filter>
<linearGradient id="paint0_linear_213_2" x1="128" y1="0" x2="128" y2="256" gradientUnits="userSpaceOnUse">
<stop stop-color="#000717"/>
<stop offset="1" stop-color="#050018"/>
</linearGradient>
<clipPath id="clip0_213_2">
<rect width="256" height="256" fill="white"/>
</clipPath>
</defs>
</svg>
