<svg width="192" height="192" viewBox="0 0 192 192" fill="none" xmlns="http://www.w3.org/2000/svg">
<g clip-path="url(#clip0_554_2)">
<g filter="url(#filter0_d_554_2)">
<rect width="192" height="192" rx="52" fill="url(#paint0_linear_554_2)"/>
</g>
<g filter="url(#filter1_d_554_2)">
<path d="M48.032 123V55.8H70.496V123H48.032ZM114.595 124.44C93.6665 124.44 76.8665 110.424 76.8665 89.592V89.4C76.8665 69.336 92.7065 54.36 113.923 54.36C125.443 54.36 134.755 58.2 142.051 64.536L129.475 79.704C125.059 75.96 120.163 73.848 114.595 73.848C105.859 73.848 99.5225 80.568 99.5225 89.688V89.88C99.5225 99.384 106.147 105.912 115.555 105.912C119.395 105.912 121.507 105.336 123.235 104.376V97.656H111.715V83.256H144.259V114.36C136.963 120.312 126.787 124.44 114.595 124.44Z" fill="white"/>
</g>
<g filter="url(#filter2_d_554_2)">
<path d="M48.032 123V55.8H70.496V123H48.032ZM114.595 124.44C93.6665 124.44 76.8665 110.424 76.8665 89.592V89.4C76.8665 69.336 92.7065 54.36 113.923 54.36C125.443 54.36 134.755 58.2 142.051 64.536L129.475 79.704C125.059 75.96 120.163 73.848 114.595 73.848C105.859 73.848 99.5225 80.568 99.5225 89.688V89.88C99.5225 99.384 106.147 105.912 115.555 105.912C119.395 105.912 121.507 105.336 123.235 104.376V97.656H111.715V83.256H144.259V114.36C136.963 120.312 126.787 124.44 114.595 124.44Z" fill="white"/>
</g>
</g>
<defs>
<filter id="filter0_d_554_2" x="-4" y="0" width="200" height="200" filterUnits="userSpaceOnUse" color-interpolation-filters="sRGB">
<feFlood flood-opacity="0" result="BackgroundImageFix"/>
<feColorMatrix in="SourceAlpha" type="matrix" values="0 0 0 0 0 0 0 0 0 0 0 0 0 0 0 0 0 0 127 0" result="hardAlpha"/>
<feOffset dy="4"/>
<feGaussianBlur stdDeviation="2"/>
<feComposite in2="hardAlpha" operator="out"/>
<feColorMatrix type="matrix" values="0 0 0 0 0 0 0 0 0 0 0 0 0 0 0 0 0 0 0.25 0"/>
<feBlend mode="normal" in2="BackgroundImageFix" result="effect1_dropShadow_554_2"/>
<feBlend mode="normal" in="SourceGraphic" in2="effect1_dropShadow_554_2" result="shape"/>
</filter>
<filter id="filter1_d_554_2" x="29.5322" y="29.86" width="147.227" height="121.08" filterUnits="userSpaceOnUse" color-interpolation-filters="sRGB">
<feFlood flood-opacity="0" result="BackgroundImageFix"/>
<feColorMatrix in="SourceAlpha" type="matrix" values="0 0 0 0 0 0 0 0 0 0 0 0 0 0 0 0 0 0 127 0" result="hardAlpha"/>
<feOffset dx="7" dy="1"/>
<feGaussianBlur stdDeviation="12.75"/>
<feComposite in2="hardAlpha" operator="out"/>
<feColorMatrix type="matrix" values="0 0 0 0 0.145098 0 0 0 0 0.411765 0 0 0 0 0.541176 0 0 0 1 0"/>
<feBlend mode="normal" in2="BackgroundImageFix" result="effect1_dropShadow_554_2"/>
<feBlend mode="normal" in="SourceGraphic" in2="effect1_dropShadow_554_2" result="shape"/>
</filter>
<filter id="filter2_d_554_2" x="43.7322" y="44.06" width="118.827" height="92.68" filterUnits="userSpaceOnUse" color-interpolation-filters="sRGB">
<feFlood flood-opacity="0" result="BackgroundImageFix"/>
<feColorMatrix in="SourceAlpha" type="matrix" values="0 0 0 0 0 0 0 0 0 0 0 0 0 0 0 0 0 0 127 0" result="hardAlpha"/>
<feOffset dx="7" dy="1"/>
<feGaussianBlur stdDeviation="5.65"/>
<feComposite in2="hardAlpha" operator="out"/>
<feColorMatrix type="matrix" values="0 0 0 0 0.146701 0 0 0 0 0.410012 0 0 0 0 0.541667 0 0 0 0.25 0"/>
<feBlend mode="normal" in2="BackgroundImageFix" result="effect1_dropShadow_554_2"/>
<feBlend mode="normal" in="SourceGraphic" in2="effect1_dropShadow_554_2" result="shape"/>
</filter>
<linearGradient id="paint0_linear_554_2" x1="96" y1="0" x2="96" y2="192" gradientUnits="userSpaceOnUse">
<stop stop-color="#000717"/>
<stop offset="1" stop-color="#050018"/>
</linearGradient>
<clipPath id="clip0_554_2">
<rect width="192" height="192" fill="white"/>
</clipPath>
</defs>
</svg>
