<?xml version="1.0" standalone="no"?>
<!DOCTYPE svg PUBLIC "-//W3C//DTD SVG 20010904//EN"
 "http://www.w3.org/TR/2001/REC-SVG-20010904/DTD/svg10.dtd">
<svg version="1.0" xmlns="http://www.w3.org/2000/svg"
 width="192.000000pt" height="192.000000pt" viewBox="0 0 192.000000 192.000000"
 preserveAspectRatio="xMidYMid meet">

<g transform="translate(0.000000,192.000000) scale(0.100000,-0.100000)"
fill="#000000" stroke="none">
<path d="M393 1906 c-187 -46 -343 -206 -382 -394 -14 -68 -15 -1027 -1 -1103
25 -137 142 -294 262 -351 117 -57 127 -58 688 -58 565 0 572 1 690 60 123 62
235 212 260 349 6 31 10 263 10 555 0 553 -2 576 -62 689 -66 124 -206 227
-346 256 -79 16 -1050 13 -1119 -3z m878 -556 c65 -20 149 -67 149 -83 0 -5
-23 -37 -52 -71 -28 -33 -55 -65 -59 -70 -4 -5 -31 3 -60 18 -88 43 -174 30
-220 -35 -19 -27 -24 -47 -24 -94 0 -105 55 -157 160 -153 60 3 60 3 63 35 l3
32 -53 3 -53 3 -3 73 -3 72 166 0 166 0 -3 -157 -3 -157 -40 -27 c-22 -15 -70
-38 -107 -50 -95 -30 -238 -25 -320 13 -200 93 -268 323 -149 510 83 130 274
190 442 138z m-563 -332 l2 -338 -115 0 -115 0 0 333 c0 184 3 337 7 341 4 3
54 5 112 4 l106 -3 3 -337z"/>
</g>
</svg>
